G04 #@! TF.GenerationSoftware,KiCad,Pcbnew,5.1.5+dfsg1-2build2*
G04 #@! TF.CreationDate,2022-10-02T22:40:52+02:00*
G04 #@! TF.ProjectId,fox_usb,666f785f-7573-4622-9e6b-696361645f70,rev?*
G04 #@! TF.SameCoordinates,Original*
G04 #@! TF.FileFunction,Legend,Top*
G04 #@! TF.FilePolarity,Positive*
%FSLAX46Y46*%
G04 Gerber Fmt 4.6, Leading zero omitted, Abs format (unit mm)*
G04 Created by KiCad (PCBNEW 5.1.5+dfsg1-2build2) date 2022-10-02 22:40:52*
%MOMM*%
%LPD*%
G04 APERTURE LIST*
%ADD10C,0.120000*%
%ADD11C,0.150000*%
%ADD12R,0.402000X1.252000*%
%ADD13C,0.752000*%
%ADD14O,1.102000X1.702000*%
%ADD15O,1.102000X2.202000*%
%ADD16O,1.452000X1.452000*%
%ADD17R,1.452000X1.452000*%
%ADD18C,2.302000*%
G04 APERTURE END LIST*
D10*
X100450000Y-47340000D02*
X109610000Y-47340000D01*
X109610000Y-47340000D02*
X109610000Y-49045000D01*
X100450000Y-49045000D02*
X100450000Y-47340000D01*
X100450000Y-51055000D02*
X100450000Y-52975000D01*
X109610000Y-52975000D02*
X109610000Y-51055000D01*
X101170000Y-62680000D02*
X101170000Y-61620000D01*
X102230000Y-62680000D02*
X101170000Y-62680000D01*
X103230000Y-62680000D02*
X103230000Y-60560000D01*
X103230000Y-60560000D02*
X109290000Y-60560000D01*
X103230000Y-62680000D02*
X109290000Y-62680000D01*
X109290000Y-62680000D02*
X109290000Y-60560000D01*
D11*
X104361904Y-53652380D02*
X104361904Y-52652380D01*
X104742857Y-52652380D01*
X104838095Y-52700000D01*
X104885714Y-52747619D01*
X104933333Y-52842857D01*
X104933333Y-52985714D01*
X104885714Y-53080952D01*
X104838095Y-53128571D01*
X104742857Y-53176190D01*
X104361904Y-53176190D01*
X105885714Y-53652380D02*
X105314285Y-53652380D01*
X105600000Y-53652380D02*
X105600000Y-52652380D01*
X105504761Y-52795238D01*
X105409523Y-52890476D01*
X105314285Y-52938095D01*
X99722380Y-61953333D02*
X100436666Y-61953333D01*
X100579523Y-62000952D01*
X100674761Y-62096190D01*
X100722380Y-62239047D01*
X100722380Y-62334285D01*
X99817619Y-61524761D02*
X99770000Y-61477142D01*
X99722380Y-61381904D01*
X99722380Y-61143809D01*
X99770000Y-61048571D01*
X99817619Y-61000952D01*
X99912857Y-60953333D01*
X100008095Y-60953333D01*
X100150952Y-61000952D01*
X100722380Y-61572380D01*
X100722380Y-60953333D01*
X111866666Y-53252380D02*
X111533333Y-52776190D01*
X111295238Y-53252380D02*
X111295238Y-52252380D01*
X111676190Y-52252380D01*
X111771428Y-52300000D01*
X111819047Y-52347619D01*
X111866666Y-52442857D01*
X111866666Y-52585714D01*
X111819047Y-52680952D01*
X111771428Y-52728571D01*
X111676190Y-52776190D01*
X111295238Y-52776190D01*
X112295238Y-52728571D02*
X112628571Y-52728571D01*
X112771428Y-53252380D02*
X112295238Y-53252380D01*
X112295238Y-52252380D01*
X112771428Y-52252380D01*
X113533333Y-52728571D02*
X113200000Y-52728571D01*
X113200000Y-53252380D02*
X113200000Y-52252380D01*
X113676190Y-52252380D01*
X114200000Y-52252380D02*
X114200000Y-52490476D01*
X113961904Y-52395238D02*
X114200000Y-52490476D01*
X114438095Y-52395238D01*
X114057142Y-52680952D02*
X114200000Y-52490476D01*
X114342857Y-52680952D01*
X114961904Y-52252380D02*
X114961904Y-52490476D01*
X114723809Y-52395238D02*
X114961904Y-52490476D01*
X115200000Y-52395238D01*
X114819047Y-52680952D02*
X114961904Y-52490476D01*
X115104761Y-52680952D01*
X95466666Y-53252380D02*
X95133333Y-52776190D01*
X94895238Y-53252380D02*
X94895238Y-52252380D01*
X95276190Y-52252380D01*
X95371428Y-52300000D01*
X95419047Y-52347619D01*
X95466666Y-52442857D01*
X95466666Y-52585714D01*
X95419047Y-52680952D01*
X95371428Y-52728571D01*
X95276190Y-52776190D01*
X94895238Y-52776190D01*
X95895238Y-52728571D02*
X96228571Y-52728571D01*
X96371428Y-53252380D02*
X95895238Y-53252380D01*
X95895238Y-52252380D01*
X96371428Y-52252380D01*
X97133333Y-52728571D02*
X96800000Y-52728571D01*
X96800000Y-53252380D02*
X96800000Y-52252380D01*
X97276190Y-52252380D01*
X97800000Y-52252380D02*
X97800000Y-52490476D01*
X97561904Y-52395238D02*
X97800000Y-52490476D01*
X98038095Y-52395238D01*
X97657142Y-52680952D02*
X97800000Y-52490476D01*
X97942857Y-52680952D01*
X98561904Y-52252380D02*
X98561904Y-52490476D01*
X98323809Y-52395238D02*
X98561904Y-52490476D01*
X98800000Y-52395238D01*
X98419047Y-52680952D02*
X98561904Y-52490476D01*
X98704761Y-52680952D01*
%LPC*%
D12*
X101680000Y-54795000D03*
X102480000Y-54795000D03*
X107280000Y-54795000D03*
X108080000Y-54795000D03*
X108380000Y-54795000D03*
X107580000Y-54795000D03*
X106780000Y-54795000D03*
X106280000Y-54795000D03*
X105780000Y-54795000D03*
X105280000Y-54795000D03*
X104780000Y-54795000D03*
X104280000Y-54795000D03*
X103780000Y-54795000D03*
X103280000Y-54795000D03*
X102780000Y-54795000D03*
X101980000Y-54795000D03*
D13*
X107920000Y-53730000D03*
X102140000Y-53730000D03*
D14*
X100710000Y-50050000D03*
X109350000Y-50050000D03*
D15*
X100710000Y-54230000D03*
X109350000Y-54230000D03*
D16*
X108230000Y-61620000D03*
X106230000Y-61620000D03*
X104230000Y-61620000D03*
D17*
X102230000Y-61620000D03*
D18*
X113200000Y-55700000D03*
X96800000Y-55700000D03*
M02*
