G04 #@! TF.GenerationSoftware,KiCad,Pcbnew,5.1.5+dfsg1-2build2*
G04 #@! TF.CreationDate,2022-10-02T22:40:52+02:00*
G04 #@! TF.ProjectId,fox_usb,666f785f-7573-4622-9e6b-696361645f70,rev?*
G04 #@! TF.SameCoordinates,Original*
G04 #@! TF.FileFunction,Soldermask,Bot*
G04 #@! TF.FilePolarity,Negative*
%FSLAX46Y46*%
G04 Gerber Fmt 4.6, Leading zero omitted, Abs format (unit mm)*
G04 Created by KiCad (PCBNEW 5.1.5+dfsg1-2build2) date 2022-10-02 22:40:52*
%MOMM*%
%LPD*%
G04 APERTURE LIST*
%ADD10C,0.100000*%
G04 APERTURE END LIST*
D10*
G36*
X106441766Y-60921899D02*
G01*
X106573888Y-60976626D01*
X106573890Y-60976627D01*
X106692798Y-61056079D01*
X106793921Y-61157202D01*
X106793922Y-61157204D01*
X106873374Y-61276112D01*
X106928101Y-61408234D01*
X106956000Y-61548494D01*
X106956000Y-61691506D01*
X106928101Y-61831766D01*
X106873374Y-61963888D01*
X106873373Y-61963890D01*
X106793921Y-62082798D01*
X106692798Y-62183921D01*
X106573890Y-62263373D01*
X106573889Y-62263374D01*
X106573888Y-62263374D01*
X106441766Y-62318101D01*
X106301506Y-62346000D01*
X106158494Y-62346000D01*
X106018234Y-62318101D01*
X105886112Y-62263374D01*
X105886111Y-62263374D01*
X105886110Y-62263373D01*
X105767202Y-62183921D01*
X105666079Y-62082798D01*
X105586627Y-61963890D01*
X105586626Y-61963888D01*
X105531899Y-61831766D01*
X105504000Y-61691506D01*
X105504000Y-61548494D01*
X105531899Y-61408234D01*
X105586626Y-61276112D01*
X105666078Y-61157204D01*
X105666079Y-61157202D01*
X105767202Y-61056079D01*
X105886110Y-60976627D01*
X105886112Y-60976626D01*
X106018234Y-60921899D01*
X106158494Y-60894000D01*
X106301506Y-60894000D01*
X106441766Y-60921899D01*
G37*
G36*
X104441766Y-60921899D02*
G01*
X104573888Y-60976626D01*
X104573890Y-60976627D01*
X104692798Y-61056079D01*
X104793921Y-61157202D01*
X104793922Y-61157204D01*
X104873374Y-61276112D01*
X104928101Y-61408234D01*
X104956000Y-61548494D01*
X104956000Y-61691506D01*
X104928101Y-61831766D01*
X104873374Y-61963888D01*
X104873373Y-61963890D01*
X104793921Y-62082798D01*
X104692798Y-62183921D01*
X104573890Y-62263373D01*
X104573889Y-62263374D01*
X104573888Y-62263374D01*
X104441766Y-62318101D01*
X104301506Y-62346000D01*
X104158494Y-62346000D01*
X104018234Y-62318101D01*
X103886112Y-62263374D01*
X103886111Y-62263374D01*
X103886110Y-62263373D01*
X103767202Y-62183921D01*
X103666079Y-62082798D01*
X103586627Y-61963890D01*
X103586626Y-61963888D01*
X103531899Y-61831766D01*
X103504000Y-61691506D01*
X103504000Y-61548494D01*
X103531899Y-61408234D01*
X103586626Y-61276112D01*
X103666078Y-61157204D01*
X103666079Y-61157202D01*
X103767202Y-61056079D01*
X103886110Y-60976627D01*
X103886112Y-60976626D01*
X104018234Y-60921899D01*
X104158494Y-60894000D01*
X104301506Y-60894000D01*
X104441766Y-60921899D01*
G37*
G36*
X102956000Y-62346000D02*
G01*
X101504000Y-62346000D01*
X101504000Y-60894000D01*
X102956000Y-60894000D01*
X102956000Y-62346000D01*
G37*
G36*
X108441766Y-60921899D02*
G01*
X108573888Y-60976626D01*
X108573890Y-60976627D01*
X108692798Y-61056079D01*
X108793921Y-61157202D01*
X108793922Y-61157204D01*
X108873374Y-61276112D01*
X108928101Y-61408234D01*
X108956000Y-61548494D01*
X108956000Y-61691506D01*
X108928101Y-61831766D01*
X108873374Y-61963888D01*
X108873373Y-61963890D01*
X108793921Y-62082798D01*
X108692798Y-62183921D01*
X108573890Y-62263373D01*
X108573889Y-62263374D01*
X108573888Y-62263374D01*
X108441766Y-62318101D01*
X108301506Y-62346000D01*
X108158494Y-62346000D01*
X108018234Y-62318101D01*
X107886112Y-62263374D01*
X107886111Y-62263374D01*
X107886110Y-62263373D01*
X107767202Y-62183921D01*
X107666079Y-62082798D01*
X107586627Y-61963890D01*
X107586626Y-61963888D01*
X107531899Y-61831766D01*
X107504000Y-61691506D01*
X107504000Y-61548494D01*
X107531899Y-61408234D01*
X107586626Y-61276112D01*
X107666078Y-61157204D01*
X107666079Y-61157202D01*
X107767202Y-61056079D01*
X107886110Y-60976627D01*
X107886112Y-60976626D01*
X108018234Y-60921899D01*
X108158494Y-60894000D01*
X108301506Y-60894000D01*
X108441766Y-60921899D01*
G37*
G36*
X97024549Y-54571116D02*
G01*
X97135734Y-54593232D01*
X97345203Y-54679997D01*
X97533720Y-54805960D01*
X97694040Y-54966280D01*
X97820003Y-55154797D01*
X97906768Y-55364266D01*
X97951000Y-55586636D01*
X97951000Y-55813364D01*
X97906768Y-56035734D01*
X97820003Y-56245203D01*
X97694040Y-56433720D01*
X97533720Y-56594040D01*
X97345203Y-56720003D01*
X97135734Y-56806768D01*
X97024549Y-56828884D01*
X96913365Y-56851000D01*
X96686635Y-56851000D01*
X96575451Y-56828884D01*
X96464266Y-56806768D01*
X96254797Y-56720003D01*
X96066280Y-56594040D01*
X95905960Y-56433720D01*
X95779997Y-56245203D01*
X95693232Y-56035734D01*
X95649000Y-55813364D01*
X95649000Y-55586636D01*
X95693232Y-55364266D01*
X95779997Y-55154797D01*
X95905960Y-54966280D01*
X96066280Y-54805960D01*
X96254797Y-54679997D01*
X96464266Y-54593232D01*
X96575451Y-54571116D01*
X96686635Y-54549000D01*
X96913365Y-54549000D01*
X97024549Y-54571116D01*
G37*
G36*
X113424549Y-54571116D02*
G01*
X113535734Y-54593232D01*
X113745203Y-54679997D01*
X113933720Y-54805960D01*
X114094040Y-54966280D01*
X114220003Y-55154797D01*
X114306768Y-55364266D01*
X114351000Y-55586636D01*
X114351000Y-55813364D01*
X114306768Y-56035734D01*
X114220003Y-56245203D01*
X114094040Y-56433720D01*
X113933720Y-56594040D01*
X113745203Y-56720003D01*
X113535734Y-56806768D01*
X113424549Y-56828884D01*
X113313365Y-56851000D01*
X113086635Y-56851000D01*
X112975451Y-56828884D01*
X112864266Y-56806768D01*
X112654797Y-56720003D01*
X112466280Y-56594040D01*
X112305960Y-56433720D01*
X112179997Y-56245203D01*
X112093232Y-56035734D01*
X112049000Y-55813364D01*
X112049000Y-55586636D01*
X112093232Y-55364266D01*
X112179997Y-55154797D01*
X112305960Y-54966280D01*
X112466280Y-54805960D01*
X112654797Y-54679997D01*
X112864266Y-54593232D01*
X112975451Y-54571116D01*
X113086635Y-54549000D01*
X113313365Y-54549000D01*
X113424549Y-54571116D01*
G37*
G36*
X100818015Y-53136973D02*
G01*
X100921879Y-53168479D01*
X100949055Y-53183005D01*
X101017600Y-53219643D01*
X101101501Y-53288499D01*
X101170357Y-53372400D01*
X101205390Y-53437942D01*
X101221521Y-53468121D01*
X101253027Y-53571985D01*
X101261000Y-53652933D01*
X101261000Y-54807067D01*
X101253027Y-54888015D01*
X101221521Y-54991879D01*
X101170356Y-55087600D01*
X101101501Y-55171501D01*
X101032645Y-55228009D01*
X101017599Y-55240357D01*
X100965907Y-55267987D01*
X100921878Y-55291521D01*
X100818014Y-55323027D01*
X100710000Y-55333666D01*
X100601985Y-55323027D01*
X100498121Y-55291521D01*
X100454093Y-55267987D01*
X100402401Y-55240357D01*
X100389643Y-55229887D01*
X100318499Y-55171501D01*
X100249644Y-55087600D01*
X100198479Y-54991878D01*
X100166973Y-54888014D01*
X100159000Y-54807066D01*
X100159001Y-53652933D01*
X100166974Y-53571985D01*
X100198480Y-53468121D01*
X100214611Y-53437942D01*
X100249644Y-53372400D01*
X100318500Y-53288499D01*
X100402401Y-53219643D01*
X100470946Y-53183005D01*
X100498122Y-53168479D01*
X100601986Y-53136973D01*
X100710000Y-53126334D01*
X100818015Y-53136973D01*
G37*
G36*
X109458015Y-53136973D02*
G01*
X109561879Y-53168479D01*
X109589055Y-53183005D01*
X109657600Y-53219643D01*
X109741501Y-53288499D01*
X109810357Y-53372400D01*
X109845390Y-53437942D01*
X109861521Y-53468121D01*
X109893027Y-53571985D01*
X109901000Y-53652933D01*
X109901000Y-54807067D01*
X109893027Y-54888015D01*
X109861521Y-54991879D01*
X109810356Y-55087600D01*
X109741501Y-55171501D01*
X109672645Y-55228009D01*
X109657599Y-55240357D01*
X109605907Y-55267987D01*
X109561878Y-55291521D01*
X109458014Y-55323027D01*
X109350000Y-55333666D01*
X109241985Y-55323027D01*
X109138121Y-55291521D01*
X109094093Y-55267987D01*
X109042401Y-55240357D01*
X109029643Y-55229887D01*
X108958499Y-55171501D01*
X108889644Y-55087600D01*
X108838479Y-54991878D01*
X108806973Y-54888014D01*
X108799000Y-54807066D01*
X108799001Y-53652933D01*
X108806974Y-53571985D01*
X108838480Y-53468121D01*
X108854611Y-53437942D01*
X108889644Y-53372400D01*
X108958500Y-53288499D01*
X109042401Y-53219643D01*
X109110946Y-53183005D01*
X109138122Y-53168479D01*
X109241986Y-53136973D01*
X109350000Y-53126334D01*
X109458015Y-53136973D01*
G37*
G36*
X108029672Y-53368449D02*
G01*
X108029674Y-53368450D01*
X108029675Y-53368450D01*
X108098103Y-53396793D01*
X108159686Y-53437942D01*
X108212058Y-53490314D01*
X108253207Y-53551897D01*
X108261527Y-53571985D01*
X108281551Y-53620328D01*
X108288038Y-53652939D01*
X108296000Y-53692967D01*
X108296000Y-53767033D01*
X108281550Y-53839675D01*
X108253207Y-53908103D01*
X108212058Y-53969686D01*
X108159686Y-54022058D01*
X108098103Y-54063207D01*
X108029675Y-54091550D01*
X108029674Y-54091550D01*
X108029672Y-54091551D01*
X107957034Y-54106000D01*
X107882966Y-54106000D01*
X107810328Y-54091551D01*
X107810326Y-54091550D01*
X107810325Y-54091550D01*
X107741897Y-54063207D01*
X107680314Y-54022058D01*
X107627942Y-53969686D01*
X107586793Y-53908103D01*
X107558450Y-53839675D01*
X107544000Y-53767033D01*
X107544000Y-53692967D01*
X107551962Y-53652939D01*
X107558449Y-53620328D01*
X107578473Y-53571985D01*
X107586793Y-53551897D01*
X107627942Y-53490314D01*
X107680314Y-53437942D01*
X107741897Y-53396793D01*
X107810325Y-53368450D01*
X107810326Y-53368450D01*
X107810328Y-53368449D01*
X107882966Y-53354000D01*
X107957034Y-53354000D01*
X108029672Y-53368449D01*
G37*
G36*
X102249672Y-53368449D02*
G01*
X102249674Y-53368450D01*
X102249675Y-53368450D01*
X102318103Y-53396793D01*
X102379686Y-53437942D01*
X102432058Y-53490314D01*
X102473207Y-53551897D01*
X102481527Y-53571985D01*
X102501551Y-53620328D01*
X102508038Y-53652939D01*
X102516000Y-53692967D01*
X102516000Y-53767033D01*
X102501550Y-53839675D01*
X102473207Y-53908103D01*
X102432058Y-53969686D01*
X102379686Y-54022058D01*
X102318103Y-54063207D01*
X102249675Y-54091550D01*
X102249674Y-54091550D01*
X102249672Y-54091551D01*
X102177034Y-54106000D01*
X102102966Y-54106000D01*
X102030328Y-54091551D01*
X102030326Y-54091550D01*
X102030325Y-54091550D01*
X101961897Y-54063207D01*
X101900314Y-54022058D01*
X101847942Y-53969686D01*
X101806793Y-53908103D01*
X101778450Y-53839675D01*
X101764000Y-53767033D01*
X101764000Y-53692967D01*
X101771962Y-53652939D01*
X101778449Y-53620328D01*
X101798473Y-53571985D01*
X101806793Y-53551897D01*
X101847942Y-53490314D01*
X101900314Y-53437942D01*
X101961897Y-53396793D01*
X102030325Y-53368450D01*
X102030326Y-53368450D01*
X102030328Y-53368449D01*
X102102966Y-53354000D01*
X102177034Y-53354000D01*
X102249672Y-53368449D01*
G37*
G36*
X100818015Y-49206973D02*
G01*
X100921879Y-49238479D01*
X100949055Y-49253005D01*
X101017600Y-49289643D01*
X101101501Y-49358499D01*
X101170357Y-49442400D01*
X101206995Y-49510945D01*
X101221521Y-49538121D01*
X101253027Y-49641985D01*
X101261000Y-49722933D01*
X101261000Y-50377067D01*
X101253027Y-50458015D01*
X101221521Y-50561879D01*
X101170356Y-50657600D01*
X101101501Y-50741501D01*
X101032645Y-50798009D01*
X101017599Y-50810357D01*
X100965907Y-50837987D01*
X100921878Y-50861521D01*
X100818014Y-50893027D01*
X100710000Y-50903666D01*
X100601985Y-50893027D01*
X100498121Y-50861521D01*
X100454093Y-50837987D01*
X100402401Y-50810357D01*
X100389643Y-50799887D01*
X100318499Y-50741501D01*
X100249644Y-50657600D01*
X100198479Y-50561878D01*
X100166973Y-50458014D01*
X100159000Y-50377066D01*
X100159000Y-49722933D01*
X100166973Y-49641985D01*
X100198480Y-49538121D01*
X100198482Y-49538118D01*
X100249645Y-49442399D01*
X100318500Y-49358499D01*
X100402401Y-49289643D01*
X100470946Y-49253005D01*
X100498122Y-49238479D01*
X100601986Y-49206973D01*
X100710000Y-49196334D01*
X100818015Y-49206973D01*
G37*
G36*
X109458015Y-49206973D02*
G01*
X109561879Y-49238479D01*
X109589055Y-49253005D01*
X109657600Y-49289643D01*
X109741501Y-49358499D01*
X109810357Y-49442400D01*
X109846995Y-49510945D01*
X109861521Y-49538121D01*
X109893027Y-49641985D01*
X109901000Y-49722933D01*
X109901000Y-50377067D01*
X109893027Y-50458015D01*
X109861521Y-50561879D01*
X109810356Y-50657600D01*
X109741501Y-50741501D01*
X109672645Y-50798009D01*
X109657599Y-50810357D01*
X109605907Y-50837987D01*
X109561878Y-50861521D01*
X109458014Y-50893027D01*
X109350000Y-50903666D01*
X109241985Y-50893027D01*
X109138121Y-50861521D01*
X109094093Y-50837987D01*
X109042401Y-50810357D01*
X109029643Y-50799887D01*
X108958499Y-50741501D01*
X108889644Y-50657600D01*
X108838479Y-50561878D01*
X108806973Y-50458014D01*
X108799000Y-50377066D01*
X108799000Y-49722933D01*
X108806973Y-49641985D01*
X108838480Y-49538121D01*
X108838482Y-49538118D01*
X108889645Y-49442399D01*
X108958500Y-49358499D01*
X109042401Y-49289643D01*
X109110946Y-49253005D01*
X109138122Y-49238479D01*
X109241986Y-49206973D01*
X109350000Y-49196334D01*
X109458015Y-49206973D01*
G37*
M02*
